<?xml version="1.0" encoding="UTF-8"?>
<svg id="Camada_1" data-name="Camada 1" xmlns="http://www.w3.org/2000/svg" viewBox="0 0 1028.72 1337.65">
  <defs>
    <style>
      .cls-1 {
        fill: #f25041;
        stroke-width: 0px;
      }
    </style>
  </defs>
  <path class="cls-1" d="m693.84,774.78c-36.86-39.69-51.19-41.44-54.77-41.09,7.41-48.64-1.01-82.1-9.7-103.33-14.11-34.46-29.97-39.22-52.94-88.6-10.61-22.79-21.5-46.74-24.49-79.59-3.29-36.11-.97-75.55,5.4-93.46,1.19-.33,49.97.37,71.4-.65,4.94-.25,9.91-.36,14.91-.36h114.64v-60.99h-487.87v60.99h95.69l99.4,16.94c-33.86,14.2-52.86,36-52.86,36,.82,12.21,1.02,15.79-.19,27.36-1.87,17.88-8.31,35.05-18.63,49.77-20.23,28.85-35.59,61.38-44.88,96.37-1.08,3.98-2.04,8.01-2.95,12.07v.03c-4.75,21.37-7.26,43.57-7.26,66.38,0,98.33,46.53,185.77,118.76,241.46-.26,1.12-.62,2.77-.97,4.78,0,0-5.17,29.82,8.89,59.14,13.43,28.04,53.19,53.02,102.91,52.94-3.36-4.03-9.08-12.01-11.46-23.56-3.78-18.34,3.45-32.92,5.79-37.21,2.08,5,5.93,12.53,12.97,19.72,9.49,9.69,19.72,13.61,28.63,17.02,6.68,2.55,16.6,5.59,29.17,6.75-2.13-2.56-23.4-28.99-14.07-59.43,3.89-12.69,11.57-21.14,16.5-25.65,6.6-2.26,16.17-6.37,25.93-14.05,9.8-7.71,15.37-15.53,20.89-23.41,5.33-7.61,12.11-18.8,17.74-33.58,1.64-.94,4.32-2.35,7.83-3.51,5.56-1.84,7.25-1.12,9.05-2.17,3.92-2.3.48-20.01-.4-35.37-1.19-20.67,2.96-34.32-3.42-37.57-1.5-.77-2.15-.22-8.91-1.51-4.6-.88-8.3-1.89-10.72-2.61Zm-197.85-6.99c-18.51,23.11-24.38,49.46-26.38,68.6-20.38-19.82-51.88-56.54-67.28-110.81-36.32-128.04,50.26-236.54,60.26-248.67-13.34,68.53-.8,112.61,13.61,140.5,26.8,51.87,75.11,76.78,65.96,106.86-5.44,17.86-24.87,16.94-46.17,43.53Zm96.22,105.96c-.61.06-1.21.1-1.83.12-17.37.63-32.93-12.12-35.56-29.31-1.79-11.71,2.27-22.51,9.63-29.98h.02c6.31-6.4,15.07-10.35,24.77-10.35,3.04,0,5.96.4,8.76,1.12,5.56,1.45,10.61,4.23,14.72,8.02-13.18,1.14-23.49,12.22-23.49,25.71,0,11.73,7.83,21.64,18.56,24.75h.02c1.59.49,3.22.79,4.93.93-5.52,5.05-12.67,8.34-20.54,9Z"/>
</svg>